<?xml version="1.0" encoding="UTF-8"?>
<svg id="Layer_2" data-name="Layer 2" xmlns="http://www.w3.org/2000/svg" viewBox="0 0 690.78 344.84">
  <defs>
    <style>
      .cls-1 {
        fill: #fff;
      }

      .cls-2 {
        fill: #dd1d39;
      }

      .cls-3 {
        fill: #ddb962;
      }
    </style>
  </defs>
  <g id="Layer_1-2" data-name="Layer 1">
    <g>
      <path class="cls-3" d="m647.19,268.05v9.15c0,8.78-7.89,16.17-18.38,17.21l-280.96,50.29c-1.64.17-3.27.17-4.91,0l-280.96-50.29c-10.49-1.04-18.38-8.43-18.38-17.21v-9.15l298.99,53.53c1.86.19,3.76.19,5.62,0l298.99-53.53Z"/>
      <path class="cls-2" d="m690.78,51.59v192.74c0,10.05-9.04,18.49-21.04,19.69l-22.55,4.04-298.99,53.53c-1.86.19-3.76.19-5.62,0l-298.99-53.53-22.55-4.04c-12-1.19-21.04-9.64-21.04-19.69V51.59c0-10.05,9.04-18.51,21.04-19.7L342.58.14c1.86-.19,3.76-.19,5.62,0l321.54,31.74c12,1.19,21.04,9.66,21.04,19.7Z"/>
      <g>
        <path class="cls-1" d="m268.29,200.15c-4.14,1.54-8.4,2.21-12.79,2.02-4.38-.19-8.53-1.25-12.42-3.17-3.05-1.41-5.79-3.39-8.22-5.96-2.44-2.56-4.51-5.38-6.21-8.45-2.07-3.58-3.56-7.46-4.48-11.63-.91-4.16-1.43-8.36-1.55-12.59-.25-7.3.58-14.6,2.47-21.91,1.89-7.3,4.84-13.96,8.86-19.98,1.95-2.95,4.17-5.64,6.67-8.07,2.49-2.43,5.21-4.55,8.13-6.34,2.92-1.66,6.03-3.01,9.32-4.04,3.29-1.02,6.58-1.41,9.87-1.15,2.92.13,5.81.67,8.68,1.63,2.86.96,5.57,2.15,8.13,3.56.12-1.54.24-4.29.37-8.26.12-3.97.27-8.17.46-12.59.18-4.42.43-8.58.73-12.49.3-3.91.64-6.63,1-8.17.61-2.56,2.01-4.67,4.2-6.34,1.95-1.41,4.14-2.11,6.58-2.11s4.81.07,7.13.19c2.07,0,4.2.1,6.39.29,2.19.19,4.32.61,6.39,1.25,1.7.51,3.32,1.28,4.84,2.31,1.52,1.03,2.71,2.37,3.56,4.04.73,1.41,1.19,2.95,1.37,4.61.18,1.67.33,3.33.46,5,.24,5.12.12,10.22-.37,15.28-.49,5.06-.91,10.09-1.28,15.08-.61,9.48-1.04,18.93-1.28,28.34-.25,9.42-.31,18.86-.18,28.34,0,4.87.18,9.67.55,14.41.37,4.74,1.03,9.42,2.01,14.03.37,1.54.73,3.43,1.1,5.67.37,2.24-.06,3.81-1.28,4.71-.98.77-2.47,1.41-4.48,1.92-2.01.51-4.17.96-6.49,1.35-2.31.38-4.57.64-6.76.77-2.19.13-3.9.19-5.12.19-2.07,0-4.23-.38-6.49-1.15-2.25-.77-4.05-2.05-5.39-3.84-1.46-1.79-2.47-3.87-3.02-6.25-.55-2.37-.94-4.71-1.19-7.01-2.8,3.46-5.88,6.73-9.23,9.8-3.35,3.07-7.03,5.32-11.05,6.73Zm3.29-29.02c1.34.13,2.71-.1,4.11-.67,1.4-.58,2.65-1.38,3.74-2.4,1.71-1.41,3.17-3.1,4.39-5.09,1.22-1.98,2.25-4.07,3.11-6.25,1.34-3.33,2.34-6.85,3.01-10.57.67-3.71.76-7.43.27-11.15-.25-1.79-.67-3.62-1.28-5.48-.61-1.86-1.4-3.56-2.38-5.09-.98-1.54-2.26-2.95-3.84-4.23-1.58-1.28-3.23-1.79-4.93-1.54-1.34.26-2.56.77-3.65,1.54-1.1.77-2.13,1.6-3.11,2.5-1.71,1.67-3.17,3.59-4.39,5.76-1.22,2.18-2.19,4.42-2.92,6.73-2.32,7.05-2.92,14.16-1.83,21.33.24,1.41.64,2.91,1.19,4.52.55,1.6,1.25,3.14,2.1,4.61.85,1.47,1.8,2.72,2.83,3.75,1.03,1.03,2.22,1.6,3.56,1.73Z"/>
        <path class="cls-1" d="m429.25,199.96c-2.8.89-5.63,1.54-8.49,1.92-2.86.38-5.7.45-8.5.19-1.71-.26-3.38-.64-5.02-1.15-1.64-.51-3.14-1.41-4.48-2.69-.98-1.02-1.8-2.21-2.47-3.55-.67-1.35-1.13-2.72-1.37-4.13-.61-3.33-.79-6.73-.55-10.18.24-3.46.55-6.85.91-10.18,1.46-13.96,2.31-27.86,2.56-41.7.24-13.84.06-27.73-.55-41.7,0-.51-.09-1.54-.27-3.07s-.37-3.17-.55-4.9c-.18-1.73-.34-3.36-.46-4.9-.12-1.54-.12-2.62,0-3.27.37-3.58,1.95-6.4,4.75-8.45,1.58-1.15,3.62-2.08,6.12-2.79,2.5-.7,5.12-1.18,7.86-1.44,2.74-.25,5.39-.19,7.95.19,2.56.38,4.69,1.03,6.39,1.92,1.22.64,2.31,1.54,3.29,2.69.97,1.15,1.76,2.37,2.37,3.65.97,2.05,1.74,4.2,2.28,6.44.55,2.24,1.01,4.45,1.37,6.63.61,4.61.91,9.26.91,13.93s-.12,9.39-.37,14.12c1.95-1.66,4.08-2.98,6.39-3.94,2.31-.96,4.69-1.7,7.13-2.21,3.53-.64,7.15-.93,10.87-.87,3.71.07,7.34.74,10.87,2.02,1.58.64,3.11,1.35,4.57,2.11,1.46.77,2.8,1.73,4.02,2.88,4.38,4.23,7.95,9.32,10.69,15.28,2.74,5.96,4.54,12.08,5.39,18.35.61,5.64.48,11.37-.37,17.2-.85,5.83-2.5,11.31-4.93,16.43-1.58,3.2-3.53,6.21-5.85,9.03-2.32,2.82-4.87,5.25-7.67,7.3-2.92,2.18-6.09,3.88-9.5,5.09-3.41,1.22-6.88,2.08-10.41,2.59-5.12.64-10.26,1.12-15.44,1.44-5.18.32-10.08-.48-14.71-2.4-.61-.25-1.4-.03-2.37.67-.98.71-1.77,1.18-2.38,1.44Zm9.87-30.17c1.58,2.56,3.77,4.26,6.58,5.09,2.8.83,5.42.42,7.86-1.25,1.95-1.15,3.59-2.95,4.93-5.38,1.34-2.43,2.38-5.09,3.11-7.97.73-2.88,1.19-5.83,1.37-8.84.18-3.01.09-5.67-.27-7.97-.61-4.1-2.19-7.62-4.75-10.57-2.07-2.31-4.66-3.14-7.76-2.5-3.11.64-5.76,2.11-7.95,4.42-2.07,2.05-3.65,4.55-4.75,7.49-1.1,2.95-1.77,6.05-2.01,9.32-.25,3.27-.06,6.5.55,9.7.61,3.2,1.64,6.02,3.11,8.45Z"/>
        <path class="cls-1" d="m609.76,120.22c-1.71-5.39-4.39-10.41-8.04-15.09-3.66-4.67-7.86-8.42-12.62-11.24-5.47-3.32-11.44-5.57-17.9-6.72-6.46-1.16-12.85-1.41-19.18-.77-3.78.51-7.53,1.31-11.23,2.39-3.72,1.1-7.16,2.72-10.33,4.9-3.04,1.93-5.79,4.3-8.22,7.11-2.43,2.82-4.51,5.9-6.2,9.22-2.08,3.71-3.57,7.69-4.48,11.91-.91,4.23-1.67,8.46-2.28,12.68-.62,5.13-.79,10.25-.55,15.37.24,5.13.96,10.13,2.18,14.99,1.22,4.74,3.11,9.32,5.67,13.75,2.56,4.41,5.66,8.1,9.32,11.05,2.2,1.8,4.6,3.16,7.21,4.13,2.63.97,5.27,1.76,7.95,2.41,4.02,1.03,8.11,1.7,12.24,2.02,4.14.32,8.28.42,12.42.28,3.29-.12,6.59-.38,9.87-.77,3.29-.38,6.45-1.15,9.49-2.3,3.53-1.42,6.74-3.4,9.6-5.96,2.86-2.55,5.39-5.38,7.59-8.46,2.07-2.94,3.8-6.15,5.2-9.6,1.39-3.46,2.4-7.05,3.02-10.76,1.34-6.66,2.03-13.45,2.09-20.37.07-6.92-.88-13.65-2.82-20.17Zm-18.1,28.52c-.33,2.17-.72,4.3-1.2,6.39-.48,2.09-1.18,4.06-2.14,5.89-1.28,2.5-3.07,4.51-5.37,6.01-2.3,1.5-4.81,2.6-7.5,3.26-2.71.67-5.52.92-8.46.76-2.94-.17-5.68-.76-8.22-1.76-2.38-1-4.61-2.42-6.67-4.26-2.07-1.83-3.58-3.92-4.53-6.27-1.27-2.83-1.99-5.8-2.14-8.89-.16-3.09-.09-6.13.23-9.14.31-4.52,1.46-8.69,3.45-12.54,1.99-3.84,4.5-7.01,7.52-9.53,3.01-2.5,6.42-4.08,10.25-4.75,3.81-.67,7.62-.09,11.43,1.75,5.09,2.35,8.74,6.18,10.97,11.53,1.58,3.35,2.46,6.85,2.61,10.52.16,3.68.08,7.36-.23,11.03Z"/>
        <path class="cls-1" d="m214.89,103.02c-2.31-7.28-5.93-14.07-10.87-20.39-4.95-6.31-10.63-11.38-17.05-15.19-7.4-4.49-15.47-7.53-24.2-9.08-8.73-1.57-17.36-1.9-25.92-1.04-5.1.69-10.17,1.77-15.18,3.24-5.02,1.49-9.67,3.68-13.96,6.62-4.11,2.61-7.82,5.81-11.12,9.61-3.28,3.81-6.09,7.98-8.38,12.47-2.81,5.02-4.82,10.39-6.06,16.1-1.22,5.71-2.26,11.43-3.08,17.14-.83,6.94-1.07,13.85-.74,20.77.33,6.94,1.3,13.69,2.95,20.26,1.65,6.41,4.21,12.6,7.66,18.58,3.45,5.96,7.65,10.95,12.59,14.93,2.97,2.43,6.22,4.28,9.75,5.58,3.55,1.3,7.13,2.38,10.74,3.25,5.43,1.39,10.96,2.3,16.55,2.72,5.59.43,11.19.56,16.78.38,4.44-.17,8.9-.51,13.35-1.04,4.44-.51,8.71-1.55,12.83-3.1,4.77-1.92,9.11-4.59,12.97-8.06,3.86-3.45,7.29-7.27,10.25-11.43,2.79-3.98,5.13-8.31,7.03-12.98,1.88-4.67,3.25-9.53,4.08-14.55,1.81-9,2.75-18.18,2.83-27.53.09-9.35-1.19-18.45-3.82-27.26Zm-24.46,38.54c-.44,2.94-.97,5.81-1.62,8.64-.64,2.82-1.6,5.48-2.89,7.96-1.73,3.39-4.14,6.09-7.25,8.12-3.11,2.03-6.5,3.52-10.14,4.41-3.66.91-7.46,1.24-11.43,1.02-3.97-.23-7.68-1.02-11.12-2.38-3.22-1.35-6.23-3.27-9.01-5.76-2.79-2.48-4.84-5.3-6.12-8.47-1.71-3.83-2.69-7.84-2.89-12.02-.22-4.18-.13-8.29.31-12.35.42-6.11,1.98-11.74,4.66-16.94,2.68-5.19,6.08-9.48,10.16-12.88,4.07-3.39,8.68-5.52,13.85-6.42,5.15-.91,10.3-.12,15.45,2.36,6.88,3.17,11.81,8.36,14.82,15.59,2.14,4.52,3.33,9.26,3.53,14.22.22,4.97.11,9.94-.31,14.91Z"/>
        <g>
          <path class="cls-1" d="m379.92,199c-2.56,1.15-5.21,1.95-7.95,2.4-2.74.45-5.51.74-8.31.86-2.56,0-5.12-.22-7.67-.67-2.56-.45-4.87-1.51-6.94-3.17-1.71-1.28-2.96-2.98-3.75-5.09-.79-2.11-1.37-4.26-1.73-6.44-.61-3.46-1.04-6.98-1.28-10.57-.25-3.58-.37-7.17-.37-10.76v-.19c-.61-5.38-.98-10.79-1.1-16.24-.12-5.44.18-10.92.91-16.43.24-2.18.58-4.35,1.01-6.53.43-2.18,1.37-4.04,2.83-5.57,1.22-1.28,2.98-2.34,5.3-3.17,2.31-.83,4.78-1.41,7.4-1.73,2.62-.32,5.21-.45,7.77-.38,2.56.07,4.69.29,6.39.67,3.04.64,5.85,1.8,8.4,3.46,2.56,1.92,4.26,4.68,5.12,8.26.61,2.69.79,5.38.55,8.07-.25,2.69-.43,5.45-.55,8.26-.12,4.61-.25,9.22-.37,13.84-.12,4.61.06,9.16.55,13.64.37,3.33.73,6.7,1.1,10.09.37,3.4.06,6.76-.91,10.09-.49,1.54-1.31,2.98-2.47,4.32-1.16,1.35-2.47,2.34-3.93,2.98Z"/>
          <path class="cls-1" d="m383.86,93.78v9.3h-8.84c-18.9,0-34.22-16.1-34.22-35.98v-9.3h8.86c2.33,0,4.59.24,6.79.72,15.64,3.3,27.41,17.83,27.41,35.26Z"/>
        </g>
      </g>
      <g>
        <path class="cls-1" d="m196.11,260.71c-.75.07-1.5.11-2.25.13-.75.02-1.5,0-2.25-.03-.48-.03-.95-.07-1.41-.1-.46-.03-.93-.1-1.41-.2-.31-.07-.61-.18-.89-.33-.29-.15-.52-.37-.69-.64-.2-.31-.34-.7-.41-1.18-.1-.48-.16-.95-.18-1.43-.02-.48-.03-.95-.03-1.43.1-3.65.27-7.28.51-10.89.24-3.61.44-7.24.61-10.89-.58.17-1.13.27-1.64.31-.38.03-.74,0-1.1-.1-.36-.1-.67-.27-.95-.51-.27-.31-.49-.75-.66-1.33-.1-.44-.17-1.07-.2-1.87-.03-.8-.03-1.64,0-2.51.03-.87.11-1.7.23-2.48.12-.78.28-1.38.49-1.79.48-.92,1.23-1.52,2.25-1.79.51-.14,1.32-.23,2.43-.28,1.11-.05,2.28-.08,3.5-.08s2.4.03,3.5.1c1.11.07,1.92.15,2.43.26.58.1,1.07.35,1.46.74s.64.88.74,1.46c.14.58.2,1.14.18,1.69-.02.55-.04,1.11-.08,1.69-.14,1.81-.27,3.6-.41,5.37-.14,1.77-.24,3.58-.31,5.42,1.09.03,2.2.06,3.32.08,1.13.02,2.23.04,3.32.08.07-3.65.32-7.23.77-10.74.03-.27.08-.65.13-1.12.05-.48.13-.97.23-1.48.1-.51.23-.99.38-1.43.15-.44.33-.77.54-.97.17-.17.36-.28.56-.33s.41-.11.61-.18c.24-.03.67-.06,1.3-.08.63-.02,1.29-.03,1.97-.03s1.34,0,1.97.03c.63.02,1.06.03,1.3.03.55.03,1.11.1,1.69.18.58.09,1.07.32,1.48.69.2.17.36.39.46.66.1.27.14.55.1.82,0,.82-.08,1.63-.23,2.43-.15.8-.28,1.61-.38,2.43-.38,2.69-.72,5.38-1.05,8.06-.32,2.68-.55,5.4-.69,8.16-.07,1.77-.09,3.54-.05,5.29.03,1.76.1,3.52.2,5.29v.95c0,.32-.02.66-.05,1-.07.38-.2.75-.38,1.13-.19.38-.45.66-.79.87-.31.2-.79.36-1.46.46-.67.1-1.36.17-2.1.2-.73.03-1.45.05-2.15.05h-1.56c-.38-.03-.76-.09-1.15-.18-.39-.09-.72-.25-1-.49-.27-.2-.48-.48-.61-.82-.14-.34-.24-.7-.31-1.07-.14-1.64-.17-3.27-.1-4.91.07-1.64.14-3.27.2-4.91-2.22-.24-4.42-.39-6.6-.46,0,.31.03.89.1,1.76.07.87.14,1.79.2,2.76.07.97.12,1.89.15,2.76.03.87.05,1.46.05,1.76-.03.48-.09.97-.18,1.48-.09.51-.32.95-.69,1.33s-.84.65-1.38.82c-.55.17-1.09.29-1.64.36Z"/>
        <path class="cls-1" d="m249.5,261.27c-.82.17-1.65.23-2.51.18-.85-.05-1.69-.18-2.51-.38-.48-.1-.94-.25-1.38-.46-.44-.2-.85-.48-1.23-.82-.24-.2-.43-.45-.59-.74s-.26-.59-.33-.9c-.1-.48-.13-.95-.08-1.41s.11-.93.18-1.41c.68-3.68,1.64-7.29,2.89-10.82,1.24-3.53,2.7-6.95,4.37-10.25-.44-.1-.87-.29-1.28-.56-.41-.27-.68-.63-.82-1.07-.2-.61-.3-1.33-.28-2.15.02-.82.12-1.64.31-2.45.19-.82.47-1.58.84-2.28.38-.7.82-1.25,1.33-1.66.58-.48,1.23-.83,1.94-1.05.72-.22,1.43-.4,2.15-.54.99-.17,2-.27,3.04-.31,1.04-.03,2.05,0,3.04.1.99.1,1.97.27,2.94.49.97.22,1.88.59,2.74,1.1.61.38,1.14.86,1.59,1.46.44.6.85,1.2,1.23,1.82.75,1.3,1.38,2.65,1.89,4.07.51,1.41.99,2.84,1.43,4.27.48,1.6.93,3.21,1.36,4.83.43,1.62.78,3.27,1.05,4.94.14.82.33,1.89.59,3.22s.45,2.7.59,4.12c.14,1.41.16,2.74.08,3.99-.09,1.25-.38,2.19-.9,2.84-.44.55-1.01.95-1.71,1.2-.7.26-1.39.43-2.07.54-.85.1-1.72.11-2.61.03-.89-.08-1.71-.35-2.45-.79-.48-.27-.88-.67-1.2-1.18-.32-.51-.57-1.04-.74-1.59-.27-.78-.45-1.6-.54-2.46-.09-.85-.18-1.7-.28-2.56-1.36-.14-2.73-.25-4.09-.33-1.36-.08-2.74-.06-4.14.08-.03.31-.08.8-.13,1.48-.05.68-.13,1.41-.23,2.17-.1.77-.21,1.48-.33,2.15-.12.67-.25,1.13-.38,1.41-.27.48-.66.85-1.18,1.13-.51.27-1.04.46-1.59.56Zm4.91-16.37c.99-.07,1.99-.05,2.99.05,1.01.1,2,.14,2.99.1-.1-1.33-.21-2.68-.33-4.04-.12-1.36-.37-2.69-.74-3.99-.07-.27-.15-.55-.26-.84-.1-.29-.23-.54-.38-.74s-.32-.34-.49-.41c-.17-.07-.38-.03-.61.1-.2.17-.43.47-.66.9-.24.43-.46.89-.66,1.41s-.38,1.01-.54,1.48c-.15.48-.26.85-.33,1.12-.24.79-.42,1.59-.54,2.4-.12.82-.26,1.64-.43,2.45Z"/>
        <path class="cls-1" d="m305.81,261.78c-.78.07-1.58.08-2.38.03-.8-.05-1.58-.2-2.33-.43-.44-.14-.87-.31-1.28-.51-.41-.2-.77-.48-1.07-.82-.48-.54-.75-1.16-.82-1.84-.03-.31-.04-.87-.03-1.69.02-.82.03-1.69.05-2.61.02-.92.04-1.79.08-2.61.03-.82.05-1.38.05-1.69.1-3.68.15-7.36.15-11.05-.38.07-.78.06-1.2-.03-.43-.08-.78-.26-1.05-.54-.38-.38-.62-.85-.74-1.43-.12-.58-.21-1.16-.28-1.74-.14-.89-.24-1.77-.31-2.66-.07-.89-.1-1.77-.1-2.66,0-.68.03-1.36.1-2.05.07-.68.19-1.35.36-1.99.1-.41.24-.8.41-1.18.17-.37.41-.7.72-.97.34-.31.72-.54,1.15-.69.43-.15.86-.28,1.3-.38,1.5-.37,3.03-.56,4.58-.56s3.11.03,4.68.1c.65.03,1.31.1,1.99.18.68.09,1.26.33,1.74.74.58.44.99,1.01,1.23,1.69.24.68.48,1.36.72,2.05.99,2.76,2.17,5.41,3.55,7.95,1.38,2.54,2.89,5,4.53,7.39-.17-2.35-.34-4.71-.51-7.06-.17-2.35-.17-4.71,0-7.06.07-.72.14-1.44.23-2.17.08-.73.3-1.42.64-2.07.51-.95,1.28-1.45,2.3-1.48,1.5-.17,3-.17,4.5,0,.58.07,1.16.15,1.74.26.58.1,1.14.27,1.69.51.37.17.72.37,1.05.59.32.22.59.52.79.9.27.44.44.94.51,1.48.07.55.07,1.07,0,1.59-.03.38-.11,1.06-.23,2.05-.12.99-.26,2.12-.41,3.4s-.32,2.63-.49,4.07c-.17,1.43-.33,2.79-.49,4.07s-.29,2.41-.41,3.4c-.12.99-.2,1.67-.23,2.04-.03.24-.06.66-.08,1.25-.02.6-.03,1.29-.05,2.07-.02.79-.03,1.6-.05,2.46-.02.85-.03,1.67-.05,2.45-.02.79-.03,1.48-.05,2.07-.02.6-.04,1.02-.08,1.25-.07.48-.2.95-.38,1.41-.19.46-.47.83-.84,1.1-.48.41-1.02.69-1.64.84s-1.23.25-1.84.28c-1.5.03-3-.15-4.5-.56-.55-.14-1.04-.38-1.48-.74s-.82-.76-1.12-1.2c-.55-.72-1.01-1.47-1.41-2.25-.39-.78-.86-1.53-1.41-2.25-.27-.37-.52-.74-.74-1.1-.22-.36-.45-.72-.69-1.1-1.19-1.88-2.34-3.77-3.45-5.68-1.11-1.91-2.22-3.84-3.35-5.78.17,1.84.36,3.67.56,5.5.2,1.82.34,3.66.41,5.5.03.48.06,1.12.08,1.94.02.82,0,1.66-.05,2.53-.05.87-.15,1.7-.28,2.48-.14.79-.34,1.35-.61,1.69-.38.48-.89.8-1.53.97-.65.17-1.26.29-1.84.36Z"/>
        <path class="cls-1" d="m367.64,261.78c-.79.07-1.58.08-2.38.03-.8-.05-1.58-.2-2.33-.43-.44-.14-.87-.31-1.28-.51-.41-.2-.77-.48-1.07-.82-.48-.54-.75-1.16-.82-1.84-.03-.31-.04-.87-.03-1.69.02-.82.03-1.69.05-2.61.02-.92.04-1.79.08-2.61.03-.82.05-1.38.05-1.69.1-3.68.15-7.36.15-11.05-.38.07-.78.06-1.2-.03-.43-.08-.78-.26-1.05-.54-.38-.38-.62-.85-.74-1.43-.12-.58-.21-1.16-.28-1.74-.14-.89-.24-1.77-.31-2.66-.07-.89-.1-1.77-.1-2.66,0-.68.03-1.36.1-2.05.07-.68.19-1.35.36-1.99.1-.41.24-.8.41-1.18.17-.37.41-.7.72-.97.34-.31.72-.54,1.15-.69s.86-.28,1.3-.38c1.5-.37,3.03-.56,4.58-.56s3.11.03,4.68.1c.65.03,1.31.1,1.99.18.68.09,1.26.33,1.74.74.58.44.99,1.01,1.23,1.69.24.68.48,1.36.72,2.05.99,2.76,2.17,5.41,3.55,7.95,1.38,2.54,2.89,5,4.53,7.39-.17-2.35-.34-4.71-.51-7.06-.17-2.35-.17-4.71,0-7.06.07-.72.14-1.44.23-2.17.08-.73.3-1.42.64-2.07.51-.95,1.28-1.45,2.3-1.48,1.5-.17,3-.17,4.5,0,.58.07,1.16.15,1.74.26.58.1,1.14.27,1.69.51.37.17.72.37,1.05.59.32.22.59.52.79.9.27.44.44.94.51,1.48.07.55.07,1.07,0,1.59-.03.38-.11,1.06-.23,2.05-.12.99-.26,2.12-.41,3.4s-.32,2.63-.49,4.07c-.17,1.43-.33,2.79-.49,4.07-.15,1.28-.29,2.41-.41,3.4-.12.99-.2,1.67-.23,2.04-.03.24-.06.66-.08,1.25-.02.6-.03,1.29-.05,2.07-.02.79-.03,1.6-.05,2.46-.02.85-.03,1.67-.05,2.45-.02.79-.03,1.48-.05,2.07-.02.6-.04,1.02-.08,1.25-.07.48-.2.95-.38,1.41-.19.46-.47.83-.84,1.1-.48.41-1.02.69-1.64.84s-1.23.25-1.84.28c-1.5.03-3-.15-4.5-.56-.55-.14-1.04-.38-1.48-.74-.44-.36-.82-.76-1.13-1.2-.55-.72-1.01-1.47-1.41-2.25-.39-.78-.86-1.53-1.41-2.25-.27-.37-.52-.74-.74-1.1-.22-.36-.45-.72-.69-1.1-1.19-1.88-2.34-3.77-3.45-5.68-1.11-1.91-2.23-3.84-3.35-5.78.17,1.84.36,3.67.56,5.5.2,1.82.34,3.66.41,5.5.03.48.06,1.12.08,1.94.02.82,0,1.66-.05,2.53-.05.87-.15,1.7-.28,2.48-.14.79-.34,1.35-.61,1.69-.38.48-.89.8-1.53.97-.65.17-1.26.29-1.84.36Z"/>
        <path class="cls-1" d="m426.25,261.27c-.82.17-1.65.23-2.51.18-.85-.05-1.69-.18-2.51-.38-.48-.1-.94-.25-1.38-.46s-.85-.48-1.23-.82c-.24-.2-.43-.45-.59-.74s-.26-.59-.33-.9c-.1-.48-.13-.95-.08-1.41s.11-.93.18-1.41c.68-3.68,1.64-7.29,2.89-10.82,1.24-3.53,2.7-6.95,4.37-10.25-.44-.1-.87-.29-1.28-.56-.41-.27-.68-.63-.82-1.07-.2-.61-.3-1.33-.28-2.15.02-.82.12-1.64.31-2.45.19-.82.47-1.58.84-2.28.37-.7.82-1.25,1.33-1.66.58-.48,1.23-.83,1.94-1.05.72-.22,1.43-.4,2.15-.54.99-.17,2-.27,3.04-.31,1.04-.03,2.05,0,3.04.1.99.1,1.97.27,2.94.49.97.22,1.88.59,2.74,1.1.61.38,1.14.86,1.59,1.46.44.6.85,1.2,1.23,1.82.75,1.3,1.38,2.65,1.89,4.07.51,1.41.99,2.84,1.43,4.27.48,1.6.93,3.21,1.36,4.83.43,1.62.77,3.27,1.05,4.94.14.82.33,1.89.59,3.22.25,1.33.45,2.7.59,4.12s.16,2.74.08,3.99c-.08,1.25-.38,2.19-.89,2.84-.44.55-1.02.95-1.71,1.2-.7.26-1.39.43-2.07.54-.85.1-1.72.11-2.61.03-.89-.08-1.71-.35-2.46-.79-.48-.27-.88-.67-1.2-1.18-.32-.51-.57-1.04-.74-1.59-.27-.78-.45-1.6-.54-2.46-.09-.85-.18-1.7-.28-2.56-1.36-.14-2.73-.25-4.09-.33-1.36-.08-2.75-.06-4.14.08-.03.31-.08.8-.13,1.48-.05.68-.13,1.41-.23,2.17-.1.77-.21,1.48-.33,2.15-.12.67-.25,1.13-.38,1.41-.27.48-.66.85-1.18,1.13-.51.27-1.04.46-1.59.56Zm4.91-16.37c.99-.07,1.99-.05,2.99.05,1.01.1,2,.14,2.99.1-.1-1.33-.21-2.68-.33-4.04-.12-1.36-.37-2.69-.74-3.99-.07-.27-.15-.55-.26-.84s-.23-.54-.38-.74c-.15-.2-.32-.34-.49-.41-.17-.07-.38-.03-.61.1-.2.17-.43.47-.66.9-.24.43-.46.89-.67,1.41s-.38,1.01-.54,1.48c-.15.48-.26.85-.33,1.12-.24.79-.42,1.59-.54,2.4-.12.82-.27,1.64-.43,2.45Z"/>
        <path class="cls-1" d="m484,260.71c-.75.07-1.5.11-2.25.13-.75.02-1.5,0-2.25-.03-.48-.03-.95-.07-1.41-.1-.46-.03-.93-.1-1.41-.2-.31-.07-.61-.18-.9-.33s-.52-.37-.69-.64c-.2-.31-.34-.7-.41-1.18-.1-.48-.16-.95-.18-1.43-.02-.48-.03-.95-.03-1.43.1-3.65.27-7.28.51-10.89.24-3.61.44-7.24.61-10.89-.58.17-1.12.27-1.64.31-.38.03-.74,0-1.1-.1s-.67-.27-.95-.51c-.27-.31-.5-.75-.67-1.33-.1-.44-.17-1.07-.2-1.87-.03-.8-.03-1.64,0-2.51.03-.87.11-1.7.23-2.48.12-.78.28-1.38.49-1.79.48-.92,1.23-1.52,2.25-1.79.51-.14,1.32-.23,2.43-.28,1.11-.05,2.28-.08,3.5-.08s2.4.03,3.5.1c1.11.07,1.92.15,2.43.26.58.1,1.07.35,1.46.74s.64.88.74,1.46c.14.58.2,1.14.18,1.69-.02.55-.04,1.11-.08,1.69-.14,1.81-.27,3.6-.41,5.37-.14,1.77-.24,3.58-.31,5.42,1.09.03,2.2.06,3.32.08,1.12.02,2.23.04,3.32.08.07-3.65.32-7.23.77-10.74.03-.27.08-.65.13-1.12.05-.48.13-.97.23-1.48.1-.51.23-.99.38-1.43.15-.44.33-.77.54-.97.17-.17.36-.28.56-.33.2-.05.41-.11.61-.18.24-.03.67-.06,1.3-.08.63-.02,1.29-.03,1.97-.03s1.34,0,1.97.03c.63.02,1.07.03,1.3.03.55.03,1.11.1,1.69.18.58.09,1.07.32,1.48.69.2.17.36.39.46.66.1.27.14.55.1.82,0,.82-.08,1.63-.23,2.43-.15.8-.28,1.61-.38,2.43-.38,2.69-.72,5.38-1.05,8.06-.32,2.68-.55,5.4-.69,8.16-.07,1.77-.08,3.54-.05,5.29.03,1.76.1,3.52.2,5.29v.95c0,.32-.02.66-.05,1-.07.38-.2.75-.38,1.13-.19.38-.45.66-.79.87-.31.2-.79.36-1.46.46-.67.1-1.36.17-2.1.2-.73.03-1.45.05-2.15.05h-1.56c-.38-.03-.76-.09-1.15-.18-.39-.09-.72-.25-1-.49-.27-.2-.48-.48-.61-.82s-.24-.7-.31-1.07c-.14-1.64-.17-3.27-.1-4.91s.14-3.27.2-4.91c-2.22-.24-4.42-.39-6.6-.46,0,.31.03.89.1,1.76.07.87.14,1.79.2,2.76.07.97.12,1.89.15,2.76.03.87.05,1.46.05,1.76-.03.48-.09.97-.18,1.48-.09.51-.32.95-.69,1.33-.38.38-.84.65-1.38.82-.55.17-1.09.29-1.64.36Z"/>
      </g>
    </g>
  </g>
</svg>