<?xml version="1.0" encoding="UTF-8"?>
<svg id="Layer_2" data-name="Layer 2" xmlns="http://www.w3.org/2000/svg" viewBox="0 0 756.33 764.44">
  <defs>
    <style>
      .cls-1 {
        fill: #fff;
      }

      .cls-2 {
        fill: #dd1d39;
      }

      .cls-3 {
        fill: #ddb962;
      }
    </style>
  </defs>
  <g id="Layer_1-2" data-name="Layer 1">
    <g>
      <g>
        <path class="cls-3" d="m597.81,451.82v6.66c0,6.39-5.74,11.77-13.38,12.53l-204.48,36.6c-1.19.12-2.38.12-3.58,0l-204.48-36.6c-7.64-.76-13.38-6.13-13.38-12.53v-6.66l217.6,38.96c1.35.14,2.74.14,4.09,0l217.6-38.96Z"/>
        <path class="cls-2" d="m629.54,294.28v140.28c0,7.31-6.58,13.46-15.32,14.33l-16.41,2.94-217.6,38.96c-1.35.14-2.74.14-4.09,0l-217.6-38.96-16.41-2.94c-8.73-.87-15.32-7.01-15.32-14.33v-140.28c0-7.31,6.58-13.47,15.32-14.34l234.02-23.1c1.35-.14,2.74-.14,4.09,0l234.02,23.1c8.73.87,15.32,7.03,15.32,14.34Z"/>
        <g>
          <path class="cls-1" d="m322.05,402.4c-3.01,1.12-6.12,1.61-9.31,1.47-3.19-.14-6.21-.91-9.04-2.31-2.22-1.02-4.21-2.47-5.98-4.34-1.77-1.86-3.28-3.92-4.52-6.15-1.51-2.61-2.59-5.43-3.26-8.46-.66-3.03-1.04-6.08-1.13-9.16-.18-5.31.42-10.63,1.8-15.94,1.37-5.31,3.52-10.16,6.45-14.54,1.42-2.14,3.04-4.1,4.85-5.87,1.82-1.77,3.79-3.31,5.92-4.62,2.13-1.21,4.39-2.19,6.78-2.94,2.39-.75,4.79-1.02,7.18-.84,2.13.09,4.23.49,6.32,1.19,2.08.7,4.06,1.56,5.92,2.59.09-1.12.18-3.12.27-6.01.09-2.89.2-5.94.33-9.16.13-3.22.31-6.25.53-9.09.22-2.84.46-4.82.73-5.94.44-1.86,1.46-3.4,3.06-4.61,1.42-1.03,3.01-1.54,4.79-1.54s3.5.05,5.19.14c1.51,0,3.06.07,4.65.21,1.6.14,3.15.44,4.65.91,1.24.37,2.41.93,3.52,1.68,1.11.75,1.97,1.73,2.59,2.94.53,1.03.86,2.15,1,3.36.13,1.21.24,2.43.33,3.64.18,3.73.09,7.44-.27,11.12-.36,3.68-.66,7.34-.93,10.98-.45,6.9-.75,13.78-.93,20.63-.18,6.85-.22,13.73-.13,20.63,0,3.54.13,7.04.4,10.49.27,3.45.75,6.85,1.46,10.21.27,1.12.53,2.5.8,4.13.27,1.63-.05,2.78-.93,3.43-.71.56-1.8,1.03-3.26,1.4-1.46.37-3.04.7-4.72.98-1.68.28-3.32.47-4.92.56-1.6.09-2.84.14-3.72.14-1.51,0-3.08-.28-4.72-.84-1.64-.56-2.95-1.49-3.92-2.8-1.06-1.3-1.8-2.82-2.19-4.55-.4-1.72-.69-3.43-.86-5.1-2.04,2.52-4.28,4.89-6.72,7.13-2.44,2.24-5.12,3.87-8.04,4.89Zm2.39-21.12c.97.09,1.97-.07,2.99-.49,1.02-.42,1.93-1,2.73-1.75,1.24-1.02,2.3-2.26,3.19-3.71.88-1.44,1.64-2.96,2.26-4.55.97-2.42,1.71-4.99,2.19-7.69.49-2.7.55-5.41.2-8.11-.18-1.3-.49-2.63-.93-3.99-.45-1.35-1.02-2.59-1.73-3.71-.71-1.12-1.64-2.14-2.79-3.08-1.15-.93-2.35-1.3-3.59-1.12-.98.19-1.86.56-2.66,1.12-.8.56-1.55,1.17-2.26,1.82-1.24,1.21-2.31,2.61-3.19,4.2-.89,1.59-1.6,3.22-2.13,4.89-1.69,5.13-2.13,10.3-1.33,15.52.18,1.03.47,2.12.86,3.29.4,1.17.91,2.29,1.53,3.36.62,1.07,1.31,1.98,2.06,2.73.75.75,1.62,1.17,2.59,1.26Z"/>
          <path class="cls-1" d="m439.2,402.26c-2.04.65-4.1,1.12-6.18,1.4-2.08.28-4.14.33-6.18.14-1.24-.19-2.46-.47-3.66-.84-1.2-.37-2.28-1.03-3.26-1.96-.71-.75-1.31-1.61-1.8-2.59-.49-.98-.82-1.98-1-3.01-.44-2.42-.58-4.89-.4-7.41.18-2.52.4-4.99.66-7.41,1.06-10.16,1.68-20.28,1.86-30.35.18-10.07.04-20.18-.4-30.35,0-.37-.07-1.12-.2-2.24s-.27-2.31-.4-3.57c-.13-1.26-.25-2.45-.33-3.57-.09-1.12-.09-1.91,0-2.38.27-2.61,1.42-4.66,3.46-6.15,1.15-.84,2.64-1.51,4.45-2.03,1.82-.51,3.72-.86,5.72-1.05,1.99-.19,3.92-.14,5.78.14,1.86.28,3.41.75,4.65,1.4.89.47,1.68,1.12,2.39,1.96.71.84,1.28,1.73,1.73,2.66.71,1.49,1.26,3.06,1.66,4.69.4,1.63.73,3.24,1,4.82.44,3.36.67,6.74.67,10.14s-.09,6.83-.27,10.28c1.42-1.21,2.97-2.17,4.65-2.87,1.68-.7,3.41-1.23,5.19-1.61,2.57-.47,5.21-.68,7.91-.63,2.7.05,5.34.54,7.91,1.47,1.15.47,2.26.98,3.32,1.54,1.06.56,2.04,1.26,2.93,2.1,3.19,3.08,5.78,6.78,7.78,11.12,1.99,4.34,3.3,8.79,3.92,13.36.44,4.1.35,8.28-.27,12.52-.62,4.24-1.82,8.23-3.59,11.96-1.15,2.33-2.57,4.52-4.25,6.57-1.69,2.05-3.55,3.82-5.58,5.31-2.13,1.59-4.43,2.82-6.91,3.71-2.48.89-5.01,1.52-7.58,1.89-3.72.47-7.47.82-11.24,1.05-3.77.23-7.34-.35-10.7-1.75-.44-.19-1.02-.02-1.73.49-.71.51-1.29.86-1.73,1.05Zm7.18-21.96c1.15,1.87,2.75,3.1,4.79,3.71,2.04.61,3.94.3,5.72-.91,1.42-.84,2.61-2.14,3.59-3.92.97-1.77,1.73-3.71,2.26-5.8.53-2.1.86-4.24,1-6.43.13-2.19.07-4.13-.2-5.8-.44-2.98-1.6-5.55-3.46-7.69-1.51-1.68-3.39-2.28-5.65-1.82-2.26.47-4.19,1.54-5.78,3.22-1.51,1.49-2.66,3.31-3.46,5.45-.8,2.15-1.29,4.41-1.46,6.78-.18,2.38-.05,4.73.4,7.06.44,2.33,1.2,4.38,2.26,6.15Z"/>
          <path class="cls-1" d="m570.57,344.22c-1.24-3.92-3.2-7.58-5.85-10.98-2.66-3.4-5.72-6.13-9.18-8.18-3.98-2.42-8.33-4.06-13.03-4.89-4.7-.84-9.35-1.02-13.96-.56-2.75.37-5.48.95-8.18,1.74-2.71.8-5.21,1.98-7.52,3.57-2.22,1.41-4.21,3.13-5.99,5.18-1.77,2.05-3.28,4.3-4.51,6.71-1.51,2.7-2.6,5.59-3.26,8.67-.66,3.08-1.22,6.15-1.66,9.23-.45,3.73-.58,7.46-.4,11.19.18,3.73.7,7.37,1.59,10.91.89,3.45,2.27,6.79,4.13,10,1.86,3.21,4.12,5.9,6.78,8.04,1.6,1.31,3.35,2.3,5.25,3.01,1.91.7,3.84,1.28,5.78,1.75,2.93.75,5.9,1.24,8.91,1.47,3.01.23,6.03.3,9.04.2,2.39-.09,4.79-.28,7.19-.56,2.39-.28,4.69-.84,6.91-1.67,2.57-1.03,4.9-2.47,6.98-4.34,2.08-1.86,3.92-3.91,5.52-6.15,1.5-2.14,2.76-4.47,3.79-6.99,1.01-2.52,1.75-5.13,2.2-7.83.97-4.85,1.48-9.79,1.52-14.82.05-5.03-.64-9.93-2.05-14.68Zm-13.17,20.76c-.24,1.58-.52,3.13-.87,4.65-.35,1.52-.86,2.95-1.56,4.29-.93,1.82-2.23,3.28-3.91,4.38-1.67,1.09-3.5,1.89-5.46,2.37-1.97.49-4.02.67-6.16.55-2.14-.12-4.13-.55-5.99-1.28-1.73-.73-3.36-1.76-4.85-3.1-1.5-1.33-2.6-2.85-3.3-4.56-.92-2.06-1.45-4.22-1.56-6.47-.12-2.25-.07-4.46.17-6.65.23-3.29,1.07-6.32,2.51-9.12,1.45-2.79,3.27-5.1,5.47-6.94,2.19-1.82,4.68-2.97,7.46-3.46,2.77-.49,5.55-.06,8.32,1.27,3.7,1.71,6.36,4.5,7.98,8.39,1.15,2.44,1.79,4.99,1.9,7.66.12,2.68.06,5.35-.17,8.03Z"/>
          <path class="cls-1" d="m283.18,331.71c-1.68-5.3-4.32-10.24-7.91-14.84-3.6-4.59-7.74-8.28-12.41-11.06-5.38-3.27-11.26-5.48-17.61-6.61-6.35-1.14-12.64-1.38-18.87-.76-3.71.5-7.4,1.29-11.05,2.36-3.66,1.08-7.04,2.68-10.16,4.82-2.99,1.9-5.69,4.23-8.09,6.99-2.39,2.78-4.43,5.81-6.1,9.07-2.05,3.65-3.51,7.56-4.41,11.72-.89,4.16-1.65,8.32-2.24,12.48-.61,5.05-.78,10.08-.54,15.12.24,5.05.95,9.96,2.15,14.75,1.2,4.66,3.06,9.17,5.58,13.52,2.51,4.34,5.57,7.97,9.16,10.86,2.16,1.77,4.53,3.11,7.1,4.06,2.58.95,5.19,1.73,7.82,2.37,3.95,1.01,7.98,1.67,12.04,1.98,4.07.31,8.15.41,12.22.28,3.23-.12,6.48-.37,9.71-.76,3.23-.37,6.34-1.13,9.34-2.26,3.47-1.39,6.63-3.34,9.44-5.87,2.81-2.51,5.3-5.29,7.46-8.32,2.03-2.9,3.74-6.05,5.12-9.45,1.37-3.4,2.37-6.93,2.97-10.59,1.31-6.55,2-13.23,2.06-20.04.07-6.8-.87-13.42-2.78-19.84Zm-17.8,28.05c-.32,2.14-.71,4.23-1.18,6.29-.47,2.06-1.17,3.99-2.1,5.79-1.26,2.46-3.02,4.43-5.28,5.91s-4.73,2.56-7.38,3.21c-2.66.66-5.43.9-8.32.75-2.89-.17-5.59-.75-8.09-1.73-2.34-.99-4.54-2.38-6.56-4.19-2.03-1.8-3.52-3.86-4.46-6.17-1.25-2.79-1.95-5.71-2.1-8.75-.16-3.04-.09-6.03.23-8.99.31-4.45,1.44-8.55,3.39-12.33,1.95-3.77,4.42-6.9,7.39-9.37,2.96-2.46,6.32-4.01,10.08-4.68,3.75-.66,7.5-.08,11.24,1.72,5,2.31,8.59,6.08,10.79,11.35,1.55,3.29,2.42,6.74,2.57,10.35.16,3.62.08,7.24-.23,10.85Z"/>
          <g>
            <path class="cls-1" d="m403.3,401.56c-1.86.84-3.79,1.42-5.78,1.75-1.99.33-4.01.54-6.05.63-1.86,0-3.72-.16-5.58-.49-1.86-.33-3.55-1.1-5.05-2.31-1.24-.93-2.15-2.17-2.73-3.71-.58-1.54-1-3.1-1.26-4.69-.45-2.52-.75-5.08-.93-7.69-.18-2.61-.27-5.22-.27-7.83v-.14c-.44-3.92-.71-7.85-.8-11.82-.09-3.96.13-7.95.66-11.96.18-1.58.42-3.17.73-4.76.31-1.58,1-2.94,2.06-4.06.89-.93,2.17-1.7,3.86-2.31,1.68-.61,3.48-1.02,5.39-1.26,1.91-.23,3.79-.33,5.65-.28,1.86.05,3.41.21,4.65.49,2.22.47,4.26,1.31,6.12,2.52,1.86,1.4,3.1,3.4,3.72,6.01.44,1.96.58,3.92.4,5.87-.18,1.96-.31,3.96-.4,6.01-.09,3.36-.18,6.71-.27,10.07-.09,3.36.04,6.67.4,9.93.27,2.43.53,4.87.8,7.34.27,2.47.04,4.92-.66,7.34-.36,1.12-.95,2.17-1.8,3.15-.84.98-1.8,1.7-2.86,2.17Z"/>
            <path class="cls-1" d="m406.16,324.98v6.77h-6.44c-13.76,0-24.91-11.72-24.91-26.18v-6.77h6.45c1.69,0,3.34.17,4.94.52,11.38,2.4,19.95,12.98,19.95,25.66Z"/>
          </g>
        </g>
        <g>
          <path class="cls-1" d="m269.52,446.48c-.55.05-1.09.08-1.64.09-.55.01-1.09,0-1.64-.02-.35-.03-.69-.05-1.02-.07-.34-.03-.68-.07-1.02-.15-.22-.05-.44-.13-.65-.24-.21-.11-.38-.27-.5-.47-.15-.22-.25-.51-.3-.86-.07-.35-.12-.69-.13-1.04-.01-.35-.02-.69-.02-1.04.07-2.65.2-5.3.37-7.93.17-2.63.32-5.27.45-7.93-.42.12-.82.2-1.19.22-.27.03-.54,0-.8-.07-.26-.07-.49-.2-.69-.37-.2-.22-.36-.55-.48-.97-.07-.32-.12-.78-.15-1.36-.02-.58-.02-1.19,0-1.82.02-.63.08-1.23.17-1.81.09-.57.2-1,.35-1.3.35-.67.89-1.1,1.64-1.3.37-.1.96-.17,1.77-.2.81-.04,1.66-.06,2.55-.06s1.74.02,2.55.07c.81.05,1.4.11,1.77.19.42.07.78.25,1.06.54s.47.64.54,1.06c.1.42.14.83.13,1.23-.01.4-.03.81-.06,1.23-.1,1.32-.2,2.62-.3,3.91-.1,1.29-.17,2.61-.22,3.95.79.02,1.6.04,2.42.06.82.01,1.63.03,2.42.06.05-2.65.24-5.26.56-7.82.02-.2.06-.47.09-.82.04-.35.09-.71.17-1.08.07-.37.17-.72.28-1.04.11-.32.24-.56.39-.71.12-.12.26-.2.41-.24s.3-.08.45-.13c.17-.02.49-.04.95-.06.46-.01.94-.02,1.43-.02s.97,0,1.43.02c.46.01.78.02.95.02.4.03.81.07,1.23.13.42.06.78.23,1.08.5.15.12.26.29.34.48.07.2.1.4.07.6,0,.6-.06,1.19-.17,1.77-.11.58-.2,1.17-.28,1.77-.27,1.96-.53,3.91-.76,5.86-.24,1.95-.4,3.93-.5,5.94-.05,1.29-.06,2.57-.04,3.85.02,1.28.07,2.56.15,3.85v.69c0,.24-.01.48-.04.73-.05.27-.14.55-.28.82-.14.27-.33.48-.58.63-.22.15-.58.26-1.06.34-.48.07-.99.12-1.53.15-.53.02-1.05.04-1.56.04h-1.14c-.27-.03-.55-.07-.84-.13-.29-.06-.53-.18-.73-.35-.2-.15-.35-.35-.45-.6-.1-.25-.17-.51-.22-.78-.1-1.19-.12-2.38-.07-3.57.05-1.19.1-2.38.15-3.57-1.61-.17-3.21-.28-4.8-.33,0,.22.02.65.07,1.28.05.63.1,1.3.15,2.01.05.71.09,1.38.11,2.01.02.63.04,1.06.04,1.28-.02.35-.07.71-.13,1.08-.06.37-.23.7-.5.97s-.61.47-1.01.6c-.4.12-.79.21-1.19.26Z"/>
          <path class="cls-1" d="m308.38,446.88c-.6.12-1.2.17-1.82.13-.62-.04-1.23-.13-1.82-.28-.35-.07-.68-.19-1-.33-.32-.15-.62-.35-.89-.6-.17-.15-.32-.33-.43-.54s-.19-.43-.24-.65c-.07-.35-.09-.69-.06-1.02s.08-.68.13-1.02c.5-2.68,1.2-5.3,2.1-7.87.91-2.57,1.97-5.06,3.18-7.46-.32-.07-.63-.21-.93-.41-.3-.2-.5-.46-.6-.78-.15-.45-.22-.97-.2-1.56.01-.6.09-1.19.22-1.79.14-.6.34-1.15.61-1.66.27-.51.6-.91.97-1.21.42-.35.89-.6,1.41-.76s1.04-.29,1.56-.39c.72-.12,1.46-.2,2.21-.22.76-.02,1.49,0,2.21.07.72.07,1.43.19,2.14.35.71.16,1.37.43,1.99.8.45.27.83.63,1.15,1.06.32.43.62.88.89,1.32.55.94,1,1.93,1.38,2.96.37,1.03.72,2.07,1.04,3.11.35,1.17.68,2.34.99,3.52.31,1.18.56,2.38.76,3.59.1.6.24,1.38.43,2.35s.33,1.97.43,3c.1,1.03.12,2,.06,2.9-.06.91-.28,1.59-.65,2.07-.32.4-.74.69-1.25.88-.51.19-1.01.32-1.51.39-.62.07-1.25.08-1.9.02-.65-.06-1.24-.25-1.79-.58-.35-.2-.64-.48-.87-.86-.24-.37-.42-.76-.54-1.15-.2-.57-.33-1.17-.39-1.79-.06-.62-.13-1.24-.2-1.86-.99-.1-1.99-.18-2.98-.24-.99-.06-2-.04-3.01.06-.03.22-.06.58-.09,1.08-.04.5-.09,1.02-.17,1.58-.07.56-.16,1.08-.24,1.56-.09.48-.18.83-.28,1.02-.2.35-.48.62-.86.82-.37.2-.76.33-1.15.41Zm3.57-11.91c.72-.05,1.45-.04,2.18.04.73.07,1.46.1,2.18.07-.07-.97-.16-1.95-.24-2.94-.09-.99-.27-1.96-.54-2.9-.05-.2-.11-.4-.19-.61-.07-.21-.17-.39-.28-.54s-.23-.25-.35-.3c-.12-.05-.27-.02-.45.07-.15.12-.31.34-.48.65-.17.31-.33.65-.48,1.02s-.28.73-.39,1.08c-.11.35-.19.62-.24.82-.17.57-.3,1.15-.39,1.75-.09.6-.19,1.19-.32,1.79Z"/>
          <path class="cls-1" d="m349.36,447.26c-.57.05-1.15.06-1.73.02-.58-.04-1.15-.14-1.69-.32-.32-.1-.63-.22-.93-.37-.3-.15-.56-.35-.78-.6-.35-.4-.55-.84-.6-1.34-.02-.22-.03-.63-.02-1.23.01-.6.02-1.23.04-1.9.01-.67.03-1.3.06-1.9.02-.6.04-1,.04-1.23.07-2.68.11-5.36.11-8.04-.27.05-.57.04-.87-.02-.31-.06-.56-.19-.76-.39-.27-.27-.45-.62-.54-1.04-.09-.42-.16-.84-.2-1.27-.1-.64-.17-1.29-.22-1.94-.05-.65-.07-1.29-.07-1.94,0-.5.02-.99.07-1.49.05-.5.14-.98.26-1.45.07-.3.17-.58.3-.86.12-.27.3-.51.52-.71.25-.22.53-.39.84-.5.31-.11.63-.2.95-.28,1.09-.27,2.2-.41,3.33-.41s2.26.03,3.41.07c.47.03.95.07,1.45.13.5.06.92.24,1.27.54.42.32.72.73.89,1.23.17.5.35.99.52,1.49.72,2.01,1.58,3.94,2.59,5.79,1,1.85,2.1,3.64,3.29,5.38-.12-1.71-.25-3.42-.37-5.14-.12-1.71-.12-3.43,0-5.14.05-.52.11-1.05.17-1.58.06-.53.22-1.04.47-1.51.37-.69.93-1.05,1.67-1.08,1.09-.12,2.18-.12,3.28,0,.42.05.84.11,1.27.19.42.07.83.2,1.23.37.27.12.53.27.76.43.24.16.43.38.58.65.2.32.32.68.37,1.08.05.4.05.78,0,1.15-.02.27-.08.77-.17,1.49-.09.72-.19,1.54-.3,2.48s-.23,1.92-.35,2.96c-.12,1.04-.24,2.03-.35,2.96s-.21,1.76-.3,2.48c-.09.72-.14,1.22-.17,1.49-.02.17-.04.48-.06.91-.01.43-.02.94-.04,1.51-.01.57-.02,1.17-.04,1.79-.01.62-.02,1.22-.04,1.79-.01.57-.02,1.07-.04,1.51-.01.43-.03.74-.06.91-.05.35-.14.69-.28,1.02-.14.33-.34.6-.61.8-.35.3-.74.5-1.19.61s-.89.18-1.34.2c-1.09.02-2.18-.11-3.28-.41-.4-.1-.76-.28-1.08-.54s-.6-.55-.82-.87c-.4-.52-.74-1.07-1.02-1.64-.29-.57-.63-1.12-1.02-1.64-.2-.27-.38-.54-.54-.8-.16-.26-.33-.53-.5-.8-.87-1.36-1.71-2.74-2.51-4.13-.81-1.39-1.62-2.79-2.44-4.21.12,1.34.26,2.67.41,4,.15,1.33.25,2.66.3,4,.02.35.04.82.06,1.41.01.6,0,1.21-.04,1.84-.04.63-.11,1.24-.2,1.81-.1.57-.25.98-.45,1.23-.27.35-.65.58-1.12.71-.47.12-.92.21-1.34.26Z"/>
          <path class="cls-1" d="m394.36,447.26c-.57.05-1.15.06-1.73.02-.58-.04-1.15-.14-1.69-.32-.32-.1-.63-.22-.93-.37-.3-.15-.56-.35-.78-.6-.35-.4-.55-.84-.6-1.34-.03-.22-.03-.63-.02-1.23.01-.6.02-1.23.04-1.9.01-.67.03-1.3.06-1.9.02-.6.04-1,.04-1.23.07-2.68.11-5.36.11-8.04-.27.05-.56.04-.87-.02-.31-.06-.57-.19-.76-.39-.27-.27-.45-.62-.54-1.04-.09-.42-.16-.84-.2-1.27-.1-.64-.17-1.29-.22-1.94-.05-.65-.07-1.29-.07-1.94,0-.5.02-.99.07-1.49.05-.5.14-.98.26-1.45.07-.3.17-.58.3-.86.12-.27.3-.51.52-.71.25-.22.53-.39.84-.5s.63-.2.95-.28c1.09-.27,2.2-.41,3.33-.41s2.26.03,3.41.07c.47.03.95.07,1.45.13.5.06.92.24,1.27.54.42.32.72.73.89,1.23.17.5.35.99.52,1.49.72,2.01,1.58,3.94,2.59,5.79,1,1.85,2.1,3.64,3.29,5.38-.12-1.71-.25-3.42-.37-5.14-.12-1.71-.12-3.43,0-5.14.05-.52.11-1.05.17-1.58.06-.53.22-1.04.46-1.51.37-.69.93-1.05,1.68-1.08,1.09-.12,2.18-.12,3.28,0,.42.05.84.11,1.27.19.42.07.83.2,1.23.37.27.12.53.27.76.43.24.16.43.38.58.65.2.32.32.68.37,1.08.05.4.05.78,0,1.15-.03.27-.08.77-.17,1.49-.09.72-.19,1.54-.3,2.48s-.23,1.92-.35,2.96-.24,2.03-.35,2.96c-.11.93-.21,1.76-.3,2.48-.09.72-.14,1.22-.17,1.49-.03.17-.04.48-.06.91-.01.43-.03.94-.04,1.51-.01.57-.03,1.17-.04,1.79-.01.62-.03,1.22-.04,1.79-.01.57-.02,1.07-.04,1.51-.01.43-.03.74-.06.91-.05.35-.14.69-.28,1.02-.14.33-.34.6-.61.8-.35.3-.74.5-1.19.61s-.89.18-1.34.2c-1.09.02-2.18-.11-3.28-.41-.4-.1-.76-.28-1.08-.54-.32-.26-.6-.55-.82-.87-.4-.52-.74-1.07-1.02-1.64-.29-.57-.63-1.12-1.02-1.64-.2-.27-.38-.54-.54-.8-.16-.26-.33-.53-.5-.8-.87-1.36-1.71-2.74-2.51-4.13-.81-1.39-1.62-2.79-2.44-4.21.12,1.34.26,2.67.41,4,.15,1.33.25,2.66.3,4,.02.35.04.82.06,1.41.01.6,0,1.21-.04,1.84-.04.63-.11,1.24-.2,1.81-.1.57-.25.98-.45,1.23-.27.35-.65.58-1.12.71-.47.12-.92.21-1.34.26Z"/>
          <path class="cls-1" d="m437.02,446.88c-.6.12-1.2.17-1.82.13-.62-.04-1.23-.13-1.82-.28-.35-.07-.68-.19-1-.33s-.62-.35-.89-.6c-.17-.15-.32-.33-.43-.54s-.19-.43-.24-.65c-.07-.35-.09-.69-.06-1.02s.08-.68.13-1.02c.5-2.68,1.2-5.3,2.1-7.87.91-2.57,1.97-5.06,3.18-7.46-.32-.07-.63-.21-.93-.41-.3-.2-.5-.46-.6-.78-.15-.45-.22-.97-.2-1.56.01-.6.09-1.19.22-1.79.14-.6.34-1.15.61-1.66.27-.51.6-.91.97-1.21.42-.35.89-.6,1.41-.76.52-.16,1.04-.29,1.56-.39.72-.12,1.46-.2,2.21-.22.76-.02,1.5,0,2.22.07.72.07,1.43.19,2.14.35.71.16,1.37.43,1.99.8.45.27.83.63,1.15,1.06.32.43.62.88.89,1.32.55.94,1.01,1.93,1.38,2.96.37,1.03.72,2.07,1.04,3.11.35,1.17.68,2.34.99,3.52.31,1.18.56,2.38.76,3.59.1.6.24,1.38.43,2.35.19.97.33,1.97.43,3s.12,2,.06,2.9c-.06.91-.28,1.59-.65,2.07-.32.4-.74.69-1.25.88-.51.19-1.01.32-1.51.39-.62.07-1.25.08-1.9.02-.65-.06-1.24-.25-1.79-.58-.35-.2-.64-.48-.87-.86-.24-.37-.42-.76-.54-1.15-.2-.57-.33-1.17-.39-1.79-.06-.62-.13-1.24-.2-1.86-.99-.1-1.99-.18-2.98-.24-.99-.06-2-.04-3.01.06-.03.22-.06.58-.09,1.08-.04.5-.09,1.02-.17,1.58-.07.56-.15,1.08-.24,1.56-.09.48-.18.83-.28,1.02-.2.35-.48.62-.86.82-.37.2-.76.33-1.15.41Zm3.57-11.91c.72-.05,1.45-.04,2.18.04.73.07,1.46.1,2.18.07-.07-.97-.15-1.95-.24-2.94-.09-.99-.27-1.96-.54-2.9-.05-.2-.11-.4-.19-.61s-.17-.39-.28-.54c-.11-.15-.23-.25-.35-.3-.12-.05-.27-.02-.45.07-.15.12-.31.34-.48.65-.17.31-.34.65-.48,1.02s-.28.73-.39,1.08c-.11.35-.19.62-.24.82-.17.57-.3,1.15-.39,1.75-.09.6-.19,1.19-.32,1.79Z"/>
          <path class="cls-1" d="m479.04,446.48c-.55.05-1.09.08-1.64.09-.55.01-1.09,0-1.64-.02-.35-.03-.69-.05-1.02-.07-.34-.03-.68-.07-1.02-.15-.22-.05-.44-.13-.65-.24s-.38-.27-.5-.47c-.15-.22-.25-.51-.3-.86-.07-.35-.12-.69-.13-1.04-.01-.35-.02-.69-.02-1.04.07-2.65.2-5.3.37-7.93.17-2.63.32-5.27.45-7.93-.42.12-.82.2-1.19.22-.27.03-.54,0-.8-.07s-.49-.2-.69-.37c-.2-.22-.36-.55-.48-.97-.07-.32-.12-.78-.15-1.36-.02-.58-.02-1.19,0-1.82.02-.63.08-1.23.17-1.81.09-.57.2-1,.35-1.3.35-.67.89-1.1,1.64-1.3.37-.1.96-.17,1.77-.2.81-.04,1.66-.06,2.55-.06s1.74.02,2.55.07c.81.05,1.4.11,1.77.19.42.07.78.25,1.06.54s.47.64.54,1.06c.1.42.14.83.13,1.23-.01.4-.03.81-.06,1.23-.1,1.32-.2,2.62-.3,3.91-.1,1.29-.17,2.61-.22,3.95.79.02,1.6.04,2.42.06.82.01,1.63.03,2.42.06.05-2.65.24-5.26.56-7.82.02-.2.06-.47.09-.82.04-.35.09-.71.17-1.08.07-.37.17-.72.28-1.04.11-.32.24-.56.39-.71.12-.12.26-.2.41-.24.15-.04.3-.08.45-.13.17-.02.49-.04.95-.06.46-.01.94-.02,1.43-.02s.97,0,1.43.02c.46.01.78.02.95.02.4.03.81.07,1.23.13.42.06.78.23,1.08.5.15.12.26.29.34.48.07.2.1.4.07.6,0,.6-.06,1.19-.17,1.77-.11.58-.2,1.17-.28,1.77-.27,1.96-.53,3.91-.76,5.86-.24,1.95-.4,3.93-.5,5.94-.05,1.29-.06,2.57-.04,3.85.02,1.28.07,2.56.15,3.85v.69c0,.24-.01.48-.04.73-.05.27-.14.55-.28.82-.14.27-.33.48-.58.63-.22.15-.58.26-1.06.34-.48.07-.99.12-1.53.15-.53.02-1.05.04-1.56.04h-1.14c-.27-.03-.55-.07-.84-.13-.29-.06-.53-.18-.73-.35-.2-.15-.35-.35-.45-.6s-.17-.51-.22-.78c-.1-1.19-.12-2.38-.07-3.57s.1-2.38.15-3.57c-1.61-.17-3.21-.28-4.8-.33,0,.22.02.65.07,1.28.05.63.1,1.3.15,2.01.05.71.09,1.38.11,2.01.02.63.04,1.06.04,1.28-.03.35-.07.71-.13,1.08-.06.37-.23.7-.5.97-.27.27-.61.47-1,.6-.4.12-.79.21-1.19.26Z"/>
        </g>
      </g>
      <g>
        <g>
          <path class="cls-2" d="m20.69,297.06c-8.09-2.28-12.97-10.99-10.73-18.95,2.26-8.01,10.94-12.8,19.03-10.52s13.04,10.91,10.78,18.92c-2.25,7.97-10.99,12.83-19.08,10.55Zm7.37-26.16c-6.41-1.8-13.33,1.86-15.08,8.06-1.75,6.21,2.23,12.98,8.64,14.79,6.46,1.82,13.38-1.89,15.13-8.09,1.75-6.21-2.24-12.94-8.7-14.76Z"/>
          <path class="cls-2" d="m23.26,239.89l4.05-9.26c3.81-8.7,12.16-12.37,20.18-8.86,8.02,3.51,11.04,12.15,7.24,20.85l-4.05,9.26-27.42-11.99Zm28.64,1.49c3-6.86.6-13.67-5.78-16.46-6.35-2.78-12.97.08-15.97,6.95l-2.69,6.14,21.75,9.52,2.69-6.15Z"/>
          <path class="cls-2" d="m45.21,194.42l1.68-2.95,26.03,14.77-1.68,2.95-26.03-14.76Z"/>
          <path class="cls-2" d="m60.16,169.72l7.93-11.2c2.79-3.95,7.28-4.93,10.84-2.41,2.59,1.84,3.18,4.17,2.9,7.29,3.41-1.8,6.77-1.88,9.44.01,3.91,2.77,4.54,7.76,1.55,11.99l-8.24,11.63-24.43-17.3Zm17.78-3.16c1.91-2.7,1.64-5.78-.64-7.39-2.27-1.61-5.27-.85-7.19,1.85l-5.47,7.72,7.82,5.54,5.47-7.72Zm11.86,7.76c2.14-3.02,1.77-6.49-.86-8.36-2.63-1.86-6.03-1.06-8.17,1.96l-5.77,8.14,9.03,6.4,5.77-8.14Z"/>
          <path class="cls-2" d="m99.1,142.73c-6.15-5.73-6.5-15.71-.86-21.76,5.67-6.08,15.59-6.37,21.73-.64,6.15,5.73,6.59,15.67.92,21.76-5.64,6.06-15.65,6.37-21.8.64Zm18.53-19.88c-4.87-4.54-12.7-4.45-17.1.26-4.4,4.72-3.97,12.56.91,17.1,4.91,4.58,12.76,4.45,17.16-.26,4.4-4.72,3.94-12.53-.97-17.1Z"/>
          <path class="cls-2" d="m170.72,60.84l17.01,24.63-2.79,1.93-7.75-11.22-14.52,10.03,7.75,11.22-2.79,1.93-17.01-24.63,2.79-1.93,7.43,10.75,14.52-10.03-7.43-10.75,2.79-1.93Z"/>
          <path class="cls-2" d="m222.15,58.57l-14.85,7.61.42,7.42-3.3,1.69-1.89-32.66,3.3-1.69,25.39,20.62-3.3,1.68-5.77-4.68Zm-2.71-2.23l-13.33-10.84.97,17.18,12.37-6.33Z"/>
          <path class="cls-2" d="m239.91,25.5l3.21-1.12,25.58,16.83-8.07-22.98,3.21-1.13,9.92,28.25-3.21,1.12-25.58-16.83,8.07,22.98-3.21,1.13-9.92-28.25Z"/>
          <path class="cls-2" d="m289.81,9.95l3.33-.68,23.03,20.19-4.84-23.88,3.33-.68,5.95,29.34-3.33.67-23.03-20.19,4.84,23.87-3.33.67-5.95-29.34Z"/>
          <path class="cls-2" d="m363.54,23.22l-16.65,1.05-2.58,6.97-3.7.23,11.3-30.69,3.7-.23,15.04,29.04-3.7.23-3.43-6.59Zm-1.59-3.13l-7.89-15.26-5.97,16.13,13.87-.87Z"/>
          <path class="cls-2" d="m416.7,1.72l-2.1,29.85-3.39-.24.96-13.6-17.6-1.24-.96,13.6-3.39-.24,2.1-29.85,3.39.24-.92,13.03,17.6,1.24.92-13.04,3.39.24Z"/>
          <path class="cls-2" d="m470.65,11.4l3.29.84-7.4,29-3.29-.84,7.39-29Z"/>
          <path class="cls-2" d="m498.58,19.31l3.19,1.18,8.97,29.28,8.44-22.85,3.19,1.18-10.38,28.08-3.19-1.18-8.97-29.28-8.44,22.85-3.19-1.18,10.38-28.08Z"/>
          <path class="cls-2" d="m546.97,39.17l8.92,4.76c8.38,4.47,11.38,13.09,7.26,20.81s-12.98,10.06-21.35,5.59l-8.92-4.76,14.09-26.4Zm-3.72,28.43c6.61,3.53,13.58,1.67,16.86-4.48,3.26-6.11.93-12.94-5.68-16.47l-5.92-3.16-11.18,20.94,5.92,3.16Z"/>
          <path class="cls-2" d="m581.3,79.2l10.26-14.19,2.75,1.99-10.26,14.2c-3.37,4.66-2.69,10.2,1.61,13.31,4.31,3.11,9.78,2.02,13.15-2.65l10.26-14.19,2.75,1.99-10.26,14.19c-4.44,6.14-11.78,7.45-17.71,3.16-5.93-4.29-6.99-11.67-2.55-17.81Z"/>
          <path class="cls-2" d="m613,113.9l3.37-.48c.12,3.57,1.15,6.99,4.21,9.85,3.37,3.15,6.81,2.92,8.66.95,2.17-2.32.97-5.18-2.01-9.64-3.43-5.13-4.92-9.08-1.38-12.87,3.28-3.5,8.95-3.31,13.15.62,3.24,3.04,4.47,6.57,4.74,10.29l-3.34.51c-.18-3.45-1.36-6.52-3.64-8.66-2.7-2.53-6.34-2.6-8.22-.59-2.11,2.26-.7,5.08,2.19,9.45,3.24,4.89,4.83,9.18,1.23,13.03-3.24,3.46-8.5,3.85-13.59-.91-3.59-3.36-5.2-7.31-5.37-11.53Z"/>
          <path class="cls-2" d="m666.48,136.67l-6.47-7.7,2.47-2.07,15.12,18.01-2.47,2.07-6.47-7.7-20.45,17.17-2.18-2.6,20.45-17.17Z"/>
          <path class="cls-2" d="m684.11,186.91l-5.04,12.54-2.12-3.25,4.88-12.23-4.33-6.65-9.02,5.87-1.85-2.85,25.08-16.34,6.64,10.19c3.38,5.18,2.69,11.4-2.02,14.47-3.94,2.57-8.79,1.67-12.22-1.76Zm-3.9-11.34l4.45,6.83c2.66,4.09,6.44,5.58,9.8,3.4,3.36-2.19,3.52-6.25.86-10.34l-4.45-6.83-10.66,6.95Z"/>
          <path class="cls-2" d="m715.56,203.57l1.57,3.01-26.53,13.86-1.58-3.01,26.54-13.86Z"/>
          <path class="cls-2" d="m726.18,233.19l-9.12,3.71,6.12,15.05-2.98,1.21-6.12-15.05-9.64,3.93,6.8,16.7-2.99,1.21-8.09-19.89,27.72-11.28,8.1,19.89-2.99,1.21-6.8-16.7Z"/>
          <path class="cls-2" d="m718.52,276.99l3.13,1.36c-1.77,3.1-2.68,6.56-1.57,10.6,1.22,4.46,4.28,6.06,6.88,5.34,3.07-.84,3.54-3.9,3.34-9.27-.24-6.17.56-10.32,5.57-11.69,4.62-1.26,9.36,1.87,10.88,7.41,1.17,4.29.37,7.94-1.35,11.26l-3.12-1.32c1.66-3.03,2.26-6.27,1.43-9.29-.98-3.57-4.04-5.53-6.69-4.81-2.98.82-3.25,3.96-3.08,9.2.2,5.86-.69,10.35-5.78,11.75-4.58,1.25-9.26-1.17-11.1-7.89-1.3-4.75-.6-8.96,1.46-12.65Z"/>
        </g>
        <g>
          <path class="cls-2" d="m12.9,428.44c8.29-1.42,16.43,4.34,17.84,12.5,1.41,8.2-4.37,16.26-12.66,17.68-8.29,1.42-16.46-4.25-17.87-12.45-1.4-8.16,4.4-16.31,12.69-17.74Zm4.6,26.79c6.57-1.13,11.23-7.41,10.15-13.76-1.09-6.36-7.59-10.76-14.16-9.64-6.61,1.14-11.27,7.46-10.18,13.81,1.09,6.35,7.58,10.72,14.2,9.59Z"/>
          <path class="cls-2" d="m39.04,480.31l3.16,9.6c2.97,9.02-.81,17.33-9.12,20.07-8.32,2.74-16.33-1.68-19.3-10.7l-3.16-9.6,28.43-9.36Zm-22.33,18c2.34,7.12,8.67,10.58,15.29,8.4,6.58-2.17,9.6-8.71,7.26-15.83l-2.1-6.37-22.55,7.43,2.1,6.37Z"/>
          <path class="cls-2" d="m56.78,527.59l1.42,3.09-27.2,12.51-1.42-3.09,27.2-12.51Z"/>
          <path class="cls-2" d="m69.54,553.31l7.03,11.78c2.48,4.15,1.56,8.65-2.18,10.89-2.73,1.63-5.1,1.22-7.83-.3.27,3.85-1.03,6.95-3.83,8.63-4.11,2.45-8.93,1.01-11.58-3.44l-7.3-12.23,25.7-15.33Zm-16.2,25.23c1.9,3.18,5.22,4.24,7.99,2.59,2.77-1.65,3.41-5.08,1.51-8.26l-5.11-8.56-9.5,5.67,5.11,8.57Zm11.89-7.7c1.69,2.84,4.62,3.84,7.01,2.41,2.39-1.43,2.91-4.48,1.22-7.32l-4.84-8.12-8.23,4.91,4.84,8.12Z"/>
          <path class="cls-2" d="m83.02,601.88c6.52-5.31,16.45-4.29,21.68,2.13,5.25,6.46,4.18,16.32-2.34,21.63-6.52,5.31-16.43,4.38-21.68-2.07-5.23-6.42-4.18-16.38,2.35-21.68Zm17.16,21.09c5.17-4.21,6.16-11.97,2.08-16.97-4.07-5-11.9-5.65-17.07-1.44-5.2,4.24-6.16,12.04-2.09,17.04,4.07,5,11.87,5.61,17.08,1.38Z"/>
          <path class="cls-2" d="m172.62,668.71l-18.21,23.75-2.7-2.07,8.3-10.82-14-10.73-8.29,10.82-2.7-2.07,18.21-23.75,2.7,2.07-7.95,10.37,14,10.74,7.95-10.37,2.69,2.07Z"/>
          <path class="cls-2" d="m201.02,713.34l-14.54-8.18-5.95,4.45-3.23-1.81,26.18-19.61,3.22,1.81-3.17,32.55-3.23-1.82.71-7.39Zm.37-3.49l1.68-17.1-13.79,10.29,12.11,6.81Z"/>
          <path class="cls-2" d="m240.11,706.58l3.17,1.22,8.62,29.39,8.72-22.75,3.17,1.22-10.71,27.96-3.18-1.22-8.62-29.39-8.72,22.75-3.18-1.22,10.72-27.95Z"/>
          <path class="cls-2" d="m289.5,723.4l3.32.73,12.88,27.77,5.24-23.78,3.32.73-6.44,29.22-3.32-.73-12.88-27.77-5.24,23.78-3.32-.73,6.44-29.22Z"/>
          <path class="cls-2" d="m359.87,757.19l-16.64-1.16-3.47,6.57-3.69-.26,15.25-28.93,3.7.26,11.08,30.77-3.69-.26-2.53-6.99Zm-1.17-3.31l-5.81-16.17-8.05,15.2,13.86.97Z"/>
          <path class="cls-2" d="m415.98,732.5l2.21,29.85-3.39.25-1.01-13.6-17.6,1.3,1.01,13.6-3.39.25-2.21-29.85,3.39-.25.97,13.04,17.6-1.3-.97-13.04,3.39-.25Z"/>
          <path class="cls-2" d="m469.72,722.17l3.28-.9,7.92,28.86-3.28.9-7.92-28.86Z"/>
          <path class="cls-2" d="m497.27,713.78l3.15-1.26,26.27,15.73-9.04-22.61,3.15-1.26,11.1,27.79-3.15,1.26-26.26-15.73,9.03,22.61-3.15,1.26-11.1-27.79Z"/>
          <path class="cls-2" d="m544.98,692.57l8.73-5.09c8.2-4.79,17.12-2.82,21.53,4.74,4.41,7.57,1.76,16.33-6.45,21.11l-8.73,5.09-15.08-25.86Zm22.25,18.09c6.47-3.78,8.55-10.69,5.04-16.71-3.49-5.98-10.52-7.58-17-3.81l-5.8,3.38,11.96,20.51,5.79-3.38Z"/>
          <path class="cls-2" d="m599.36,678.7l-10.93-13.69,2.65-2.12,10.93,13.69c3.59,4.5,9.11,5.33,13.26,2.01,4.16-3.32,4.56-8.88.97-13.38l-10.93-13.69,2.66-2.12,10.93,13.69c4.73,5.93,4.02,13.35-1.69,17.92-5.72,4.57-13.12,3.62-17.85-2.31Z"/>
          <path class="cls-2" d="m644.33,650.67l-.46-3.38c3.57-.09,7-1.1,9.88-4.14,3.18-3.35,2.97-6.8,1.01-8.66-2.31-2.19-5.17-1.01-9.66,1.94-5.15,3.4-9.12,4.86-12.88,1.29-3.47-3.3-3.25-8.98.71-13.15,3.06-3.23,6.6-4.43,10.33-4.68l.49,3.35c-3.45.15-6.53,1.31-8.7,3.58-2.55,2.68-2.64,6.33-.65,8.22,2.24,2.13,5.08.73,9.47-2.13,4.91-3.21,9.22-4.77,13.04-1.14,3.44,3.27,3.8,8.53-1,13.59-3.39,3.57-7.36,5.16-11.58,5.3Z"/>
          <path class="cls-2" d="m664.15,593.26l-5.93,8.13-2.61-1.9,13.87-19,2.6,1.9-5.93,8.13,21.56,15.74-2,2.75-21.57-15.74Z"/>
          <path class="cls-2" d="m705.89,556.35l13.44-1.48-1.87,3.4-13.08,1.47-3.81,6.95,9.44,5.18-1.63,2.98-26.25-14.39,5.85-10.66c2.98-5.43,8.78-7.76,13.71-5.05,4.13,2.26,5.63,6.96,4.22,11.61Zm-8.15,8.8l3.92-7.15c2.35-4.28,1.88-8.31-1.64-10.24-3.51-1.93-7.17-.16-9.52,4.12l-3.92,7.15,11.16,6.12Z"/>
          <path class="cls-2" d="m702.75,519.26l1.31-3.13,27.59,11.57-1.31,3.13-27.59-11.57Z"/>
          <path class="cls-2" d="m716.9,490.7l9.43,2.85,4.7-15.56,3.09.93-4.7,15.56,9.97,3.01,5.21-17.27,3.09.93-6.21,20.56-28.66-8.66,6.21-20.56,3.09.93-5.22,17.27Z"/>
          <path class="cls-2" d="m749.49,454.59l-2.27-2.54c2.9-2.08,5.17-4.84,5.85-8.97.76-4.55-1.35-7.29-4.02-7.73-3.14-.52-4.85,2.07-6.9,7.03-2.36,5.7-4.82,9.14-9.94,8.29-4.73-.78-7.73-5.6-6.79-11.28.73-4.38,2.98-7.36,5.92-9.66l2.28,2.5c-2.77,2.06-4.67,4.74-5.19,7.84-.6,3.65,1.36,6.72,4.07,7.16,3.05.5,4.61-2.24,6.64-7.07,2.26-5.41,4.95-9.12,10.15-8.26,4.68.78,7.93,4.93,6.79,11.81-.8,4.86-3.2,8.39-6.61,10.87Z"/>
        </g>
      </g>
    </g>
  </g>
</svg>