<?xml version="1.0" encoding="UTF-8" standalone="no"?>
<!-- Created with Inkscape (http://www.inkscape.org/) -->

<svg
   width="210mm"
   height="297mm"
   viewBox="0 0 210 297"
   version="1.1"
   id="svg1"
   xmlns="http://www.w3.org/2000/svg"
   xmlns:svg="http://www.w3.org/2000/svg">
  <defs
     id="defs1" />
  <g
     id="layer1">
    <path
       id="path3"
       style="fill:none;stroke:#000000;stroke-width:0.726787;stroke-dasharray:none"
       d="m 55.646451,96.713807 6.944506,5.860373 M 58.170384,90.566078 a 8.7492037,8.7492037 0 0 1 -8.749203,8.749204 8.7492037,8.7492037 0 0 1 -8.749204,-8.749204 8.7492037,8.7492037 0 0 1 8.749204,-8.749203 8.7492037,8.7492037 0 0 1 8.749203,8.749203 z" />
    <path
       id="path6"
       style="fill:none;stroke:#000000;stroke-width:1.41637"
       d="m 110.29146,105.56255 c -13.464239,0 -24.378872,10.91463 -24.378875,24.37887 0,5.77632 2.02639,11.06874 5.383651,15.2461 l -0.02429,0.007 0.763261,0.90485 17.868683,21.18424 22.83116,27.64689 21.47518,-25.95397 18.58646,-21.62762 c 3.74557,-4.28619 6.01513,-9.89589 6.01513,-16.0352 0,-13.46424 -10.91515,-24.37887 -24.37939,-24.37887 -9.49559,0 -17.72325,5.4285 -21.74854,13.35164 -3.7398,-8.66175 -12.35812,-14.72365 -22.39243,-14.72365 z" />
  </g>
</svg>
