<?xml version="1.0" encoding="UTF-8" standalone="no"?>
<!-- Created with Inkscape (http://www.inkscape.org/) -->

<svg
   width="21.031162mm"
   height="26.123148mm"
   viewBox="0 0 21.031162 26.123148"
   version="1.1"
   id="svg1"
   xmlns="http://www.w3.org/2000/svg"
   xmlns:svg="http://www.w3.org/2000/svg">
  <defs
     id="defs1" />
  <g
     id="layer1"
     transform="translate(-23.785205,-156.70806)">
    <path
       id="path11"
       style="fill:none;stroke:#000000;stroke-width:1.26413;stroke-dasharray:none"
       d="m 24.446302,163.60069 h 19.708962 m -4.295974,4.05775 v -5.147 c 0.04275,-0.22397 0.03166,-0.45019 0.03172,-0.67673 -4.2e-5,-0.22668 0.01099,-0.45299 -0.03172,-0.67707 v -0.27763 0 c -0.56183,-2.06616 -2.913305,-3.5399 -5.558507,-3.53987 v 0 c -2.645204,-5e-5 -4.932753,1.47371 -5.494584,3.53987 v 0 l -0.06391,0.27763 c -0.04276,0.22408 -0.03167,0.45039 -0.03172,0.67707 6.1e-5,0.22654 -0.01099,0.45276 0.03172,0.67673 v 5.147 m 15.41298,-4.05775 v 19.2025 m 0.65896,-0.60403 -21.026882,-0.0712 m 0.65896,-18.52724 v 19.2025" />
  </g>
</svg>
